<svg id="Color_Palette" data-name="Color, Palette" xmlns="http://www.w3.org/2000/svg" width="24" height="24" viewBox="0 0 24 24">
  <path id="Path_38" data-name="Path 38" d="M0,0H24V24H0Z" fill="none"/>
  <path id="Path_39" data-name="Path 39" d="M12,6.375a.272.272,0,0,0-.273.275A.275.275,0,1,0,12,6.375" fill="none" stroke="#1e2126" stroke-linecap="round" stroke-linejoin="round" stroke-width="1.5"/>
  <path id="Path_40" data-name="Path 40" d="M6.924,12a.272.272,0,0,0-.274-.273A.275.275,0,1,0,6.924,12" fill="none" stroke="#1e2126" stroke-linecap="round" stroke-linejoin="round" stroke-width="1.5"/>
  <path id="Path_41" data-name="Path 41" d="M15.977,8.022a.274.274,0,1,0,0,.389.273.273,0,0,0,0-.389" fill="none" stroke="#1e2126" stroke-linecap="round" stroke-linejoin="round" stroke-width="1.5"/>
  <path id="Path_42" data-name="Path 42" d="M8.41,15.589a.274.274,0,1,0,0,.389.273.273,0,0,0,0-.389" fill="none" stroke="#1e2126" stroke-linecap="round" stroke-linejoin="round" stroke-width="1.5"/>
  <path id="Path_43" data-name="Path 43" d="M8.411,8.41a.274.274,0,1,0-.389,0,.273.273,0,0,0,.389,0" fill="none" stroke="#1e2126" stroke-linecap="round" stroke-linejoin="round" stroke-width="1.5"/>
  <path id="Path_44" data-name="Path 44" d="M12,21a9,9,0,0,1-9-9.255A9.1,9.1,0,0,1,11.745,3,9,9,0,0,1,21,12v1a2,2,0,0,1-2,2H16.937a2,2,0,0,0-1.923,2.549l.257.9A2,2,0,0,1,13.349,21Z" fill="none" stroke="#1e2126" stroke-linecap="round" stroke-linejoin="round" stroke-width="1.5"/>
</svg>
