<svg xmlns="http://www.w3.org/2000/svg" width="24" height="24" viewBox="0 0 24 24">
  <g id="Group_421" data-name="Group 421" transform="translate(-3499 23)">
    <g id="Scale_Tool_Move" data-name="Scale, Tool, Move" transform="translate(3499 -23)">
      <g id="Group_420" data-name="Group 420">
        <path id="Path_73" data-name="Path 73" d="M16,21h3a2,2,0,0,0,2-2V5a2,2,0,0,0-2-2H5A2,2,0,0,0,3,5V8" fill="none" stroke="#1e2126" stroke-linecap="round" stroke-linejoin="round" stroke-width="1.5"/>
      </g>
      <path id="Path_74" data-name="Path 74" d="M0,0H24V24H0Z" fill="none"/>
    </g>
    <path id="Path_76" data-name="Path 76" d="M3,19a9.07,9.07,0,0,0,9.07,9.07" transform="translate(3498.93 -30)" fill="none" stroke="#1e2126" stroke-linecap="round" stroke-linejoin="round" stroke-width="1.5"/>
    <path id="Path_77" data-name="Path 77" d="M12.25,12h0a.25.25,0,1,1-.25-.25h0a.25.25,0,0,1,.25.25" transform="translate(3499.25 -22.75)" fill="none" stroke="#1e2126" stroke-linecap="round" stroke-linejoin="round" stroke-width="1.5"/>
  </g>
</svg>
