<svg id="menu-dots-square" xmlns="http://www.w3.org/2000/svg" width="24" height="24" viewBox="0 0 24 24">
  <rect id="Rectangle_228" data-name="Rectangle 228" width="24" height="24" fill="none"/>
  <rect id="Rectangle_229" data-name="Rectangle 229" width="18" height="18" rx="2.761" transform="translate(3 3)" fill="none" stroke="#1e2126" stroke-linecap="round" stroke-linejoin="round" stroke-width="1.5"/>
  <path id="Path_45" data-name="Path 45" d="M16.25,12h0a.25.25,0,1,1-.25-.25h0a.25.25,0,0,1,.25.25" fill="none" stroke="#1e2126" stroke-linecap="round" stroke-linejoin="round" stroke-width="1.5"/>
  <path id="Path_46" data-name="Path 46" d="M8.25,12h0A.25.25,0,1,1,8,11.75H8a.25.25,0,0,1,.25.25" fill="none" stroke="#1e2126" stroke-linecap="round" stroke-linejoin="round" stroke-width="1.5"/>
  <path id="Path_47" data-name="Path 47" d="M12.25,12h0a.25.25,0,1,1-.25-.25h0a.25.25,0,0,1,.25.25" fill="none" stroke="#1e2126" stroke-linecap="round" stroke-linejoin="round" stroke-width="1.5"/>
  <path id="Path_67" data-name="Path 67" d="M16.25,12h0a.25.25,0,1,1-.25-.25h0a.25.25,0,0,1,.25.25" transform="translate(0 24) rotate(-90)" fill="none" stroke="#1e2126" stroke-linecap="round" stroke-linejoin="round" stroke-width="1.5"/>
  <path id="Path_68" data-name="Path 68" d="M8.25,12h0A.25.25,0,1,1,8,11.75H8a.25.25,0,0,1,.25.25" transform="translate(0 24) rotate(-90)" fill="none" stroke="#1e2126" stroke-linecap="round" stroke-linejoin="round" stroke-width="1.5"/>
</svg>
