<svg xmlns="http://www.w3.org/2000/svg" width="26" height="26" viewBox="0 0 26 26">
  <g id="Group_76" data-name="Group 76" transform="translate(-1254 -231)">
    <g id="Group_75" data-name="Group 75" transform="translate(0.618 -2.588)">
      <path id="Path_128" data-name="Path 128" d="M7.5,3H5.25A2.25,2.25,0,0,0,3,5.25V7.5" transform="translate(1254.185 234.374)" fill="none" stroke="#24292e" stroke-linecap="round" stroke-linejoin="round" stroke-width="1.75"/>
      <path id="Path_129" data-name="Path 129" d="M3,16.5v2.25A2.25,2.25,0,0,0,5.25,21H7.5" transform="translate(1254.185 234.376)" fill="none" stroke="#24292e" stroke-linecap="round" stroke-linejoin="round" stroke-width="1.75"/>
      <path id="Path_130" data-name="Path 130" d="M21,7.5V5.25A2.25,2.25,0,0,0,18.75,3H16.5" transform="translate(1254.188 234.374)" fill="none" stroke="#24292e" stroke-linecap="round" stroke-linejoin="round" stroke-width="1.75"/>
      <g id="Group_75-2" data-name="Group 75" transform="translate(1269.933 249.728)">
        <line id="Line_7" data-name="Line 7" x2="4.473" y2="4.473" transform="translate(3.163 0) rotate(45)" fill="none" stroke="#24292e" stroke-linecap="round" stroke-linejoin="round" stroke-width="1.75"/>
        <line id="Line_8" data-name="Line 8" y1="4.474" x2="4.474" transform="translate(3.163 0) rotate(45)" fill="none" stroke="#24292e" stroke-linecap="round" stroke-linejoin="round" stroke-width="1.75"/>
      </g>
    </g>
    <rect id="Rectangle_66" data-name="Rectangle 66" width="26" height="26" transform="translate(1254 231)" fill="none"/>
  </g>
</svg>
