<svg id="text-copy" xmlns="http://www.w3.org/2000/svg" width="24" height="24" viewBox="0 0 24 24">
  <rect id="Rectangle_230" data-name="Rectangle 230" width="24" height="24" fill="none"/>
  <path id="Path_57" data-name="Path 57" d="M16,21a2,2,0,0,0,2-2V17" fill="none" stroke="#1e2126" stroke-linecap="round" stroke-linejoin="round" stroke-width="1.5"/>
  <path id="Path_58" data-name="Path 58" d="M3,19a2,2,0,0,0,2,2" fill="none" stroke="#1e2126" stroke-linecap="round" stroke-linejoin="round" stroke-width="1.5"/>
  <path id="Path_59" data-name="Path 59" d="M7,6H5A2,2,0,0,0,3,8" fill="none" stroke="#1e2126" stroke-linecap="round" stroke-linejoin="round" stroke-width="1.5"/>
  <line id="Line_14929" data-name="Line 14929" y2="3" transform="translate(3 12)" fill="none" stroke="#1e2126" stroke-linecap="round" stroke-linejoin="round" stroke-width="1.5"/>
  <line id="Line_14930" data-name="Line 14930" x2="3" transform="translate(9 21)" fill="none" stroke="#1e2126" stroke-linecap="round" stroke-linejoin="round" stroke-width="1.5"/>
  <path id="Path_60" data-name="Path 60" d="M17.889,3H10.111A3.111,3.111,0,0,0,7,6.111H7v7.778A3.111,3.111,0,0,0,10.111,17h7.778A3.111,3.111,0,0,0,21,13.889h0V6.109A3.111,3.111,0,0,0,17.889,3Z" fill="none" stroke="#1e2126" stroke-linecap="round" stroke-linejoin="round" stroke-width="1.5"/>
</svg>
