<svg id="keyboard-button-arrows-square" xmlns="http://www.w3.org/2000/svg" width="24" height="24" viewBox="0 0 24 24">
  <g id="Group_418" data-name="Group 418">
    <path id="Path_48" data-name="Path 48" d="M21,7.5V6a3,3,0,0,0-3-3H6A3,3,0,0,0,3,6V18a3,3,0,0,0,3,3H18a3,3,0,0,0,3-3Z" fill="none" stroke="#1e2126" stroke-linecap="round" stroke-linejoin="round" stroke-width="1.5"/>
    <path id="Path_49" data-name="Path 49" d="M13.5,7.5,12,6,10.5,7.5" fill="none" stroke="#1e2126" stroke-linecap="round" stroke-linejoin="round" stroke-width="1.5"/>
    <path id="Path_50" data-name="Path 50" d="M10.5,16.5,12,18l1.5-1.5" fill="none" stroke="#1e2126" stroke-linecap="round" stroke-linejoin="round" stroke-width="1.5"/>
    <path id="Path_51" data-name="Path 51" d="M16.5,13.5,18,12l-1.5-1.5" fill="none" stroke="#1e2126" stroke-linecap="round" stroke-linejoin="round" stroke-width="1.5"/>
    <path id="Path_52" data-name="Path 52" d="M7.5,10.5,6,12l1.5,1.5" fill="none" stroke="#1e2126" stroke-linecap="round" stroke-linejoin="round" stroke-width="1.5"/>
  </g>
  <path id="Path_53" data-name="Path 53" d="M0,0H24V24H0Z" fill="none"/>
</svg>
